<svg xmlns="http://www.w3.org/2000/svg" enable-background="new 0 0 512 512" viewBox="0 0 512 512"><path fill="#fff" d="M435.601,33.73V478.27c0,13.152-10.662,23.815-23.815,23.815H100.214
			c-13.152,0-23.815-10.662-23.815-23.815V33.73c0-13.152,10.662-23.815,23.815-23.815h311.573
			C424.939,9.915,435.601,20.577,435.601,33.73z"/><path fill="#47aacb" d="M256.088,123.161c0,21.433-10.241,40.406-26.038,52.393c-10.955,8.414-24.767,13.336-39.691,13.336
			s-28.736-4.922-39.771-13.336c-15.797-11.987-26.037-30.959-26.037-52.393c0-36.198,29.451-65.649,65.808-65.649
			C226.637,57.512,256.088,86.963,256.088,123.161z"/><path fill="#90cddf" d="M256.079,123.193c0,21.433-10.241,40.406-26.038,52.393c-10.955,8.415-24.767,13.336-39.691,13.336
			S161.614,184,150.58,175.586c-6.509-4.922-12.145-11.193-16.432-18.258c9.923,6.112,21.671,9.525,34.134,9.525
			c14.924,0,28.736-4.922,39.691-13.336c15.797-11.987,26.037-30.959,26.037-52.392c0-12.384-3.493-24.053-9.447-33.976
			C243.457,78.739,256.079,99.537,256.079,123.193z"/><path fill="#dbdbdb" d="M208.497 110.965c0 10.012-8.166 18.178-18.177 18.178-10.083 0-18.177-8.166-18.177-18.178 0-10.083 8.095-18.177 18.177-18.177C200.332 92.788 208.497 100.883 208.497 110.965zM230.051 175.554c-10.955 8.414-24.767 13.336-39.691 13.336s-28.736-4.922-39.771-13.336c7.145-15.241 22.227-25.64 39.771-25.64C207.824 149.913 222.907 160.312 230.051 175.554z"/><path fill="#3a3d3f" d="M411.788,1.977H100.212c-17.512,0-31.753,14.245-31.753,31.753V478.27
			c0,17.508,14.241,31.753,31.753,31.753h311.575c17.512,0,31.753-14.245,31.753-31.753V33.73
			C443.541,16.221,429.3,1.977,411.788,1.977z M427.664,478.27c0,8.756-7.124,15.876-15.876,15.876H100.212
			c-8.752,0-15.876-7.12-15.876-15.876V33.73c0-8.756,7.124-15.876,15.876-15.876h311.575c8.752,0,15.876,7.12,15.876,15.876V478.27
			z"/><path fill="#3a3d3f" d="M190.362,196.828c40.702,0,73.661-32.87,73.661-73.665c0-40.575-33.048-73.587-73.661-73.587
			c-40.66,0-73.746,33.013-73.746,73.587C116.616,164.368,149.971,196.828,190.362,196.828z M161.3,173.021
			c6.737-9.463,17.34-15.171,29.062-15.171c11.684,0,22.264,5.715,28.992,15.187c-8.694,5.112-18.548,7.914-28.992,7.914
			C179.939,180.951,170.061,178.144,161.3,173.021z M190.362,65.452c31.861,0,57.785,25.888,57.785,57.711
			c0,15.226-5.885,29.397-16.3,40.12c-9.691-13.295-24.785-21.309-41.485-21.309c-16.748,0-31.873,8.017-41.572,21.316
			c-10.406-10.71-16.298-24.89-16.298-40.127C132.492,91.34,158.454,65.452,190.362,65.452z"/><path fill="#3a3d3f" d="M190.324 137.082c14.396 0 26.109-11.717 26.109-26.117s-11.714-26.113-26.109-26.113c-14.404 0-26.117 11.714-26.117 26.113S175.92 137.082 190.324 137.082zM190.324 100.728c5.643 0 10.233 4.593 10.233 10.237 0 5.647-4.589 10.241-10.233 10.241-5.644 0-10.241-4.593-10.241-10.241C180.083 105.224 184.579 100.728 190.324 100.728zM387.446 77.378h-82.204c-4.388 0-7.938 3.554-7.938 7.938 0 4.384 3.55 7.938 7.938 7.938h82.204c4.388 0 7.938-3.554 7.938-7.938C395.384 80.933 391.834 77.378 387.446 77.378zM387.446 115.263h-82.204c-4.388 0-7.938 3.554-7.938 7.938 0 4.384 3.55 7.938 7.938 7.938h82.204c4.388 0 7.938-3.554 7.938-7.938C395.384 118.818 391.834 115.263 387.446 115.263zM387.446 153.144h-82.204c-4.388 0-7.938 3.554-7.938 7.938s3.55 7.938 7.938 7.938h82.204c4.388 0 7.938-3.554 7.938-7.938S391.834 153.144 387.446 153.144zM124.554 262.888h14.404c4.388 0 7.938-3.554 7.938-7.938 0-4.384-3.55-7.938-7.938-7.938h-14.404c-4.388 0-7.938 3.554-7.938 7.938C116.616 259.333 120.166 262.888 124.554 262.888zM164.207 254.95c0 4.384 3.55 7.938 7.938 7.938h112.802c4.388 0 7.938-3.554 7.938-7.938 0-4.384-3.55-7.938-7.938-7.938H172.145C167.757 247.011 164.207 250.566 164.207 254.95zM124.554 315.254h14.404c4.388 0 7.938-3.554 7.938-7.938 0-4.384-3.55-7.938-7.938-7.938h-14.404c-4.388 0-7.938 3.554-7.938 7.938C116.616 311.699 120.166 315.254 124.554 315.254zM284.947 299.377H172.145c-4.388 0-7.938 3.554-7.938 7.938 0 4.384 3.55 7.938 7.938 7.938h112.802c4.388 0 7.938-3.554 7.938-7.938C292.885 302.932 289.334 299.377 284.947 299.377zM124.554 367.62h14.404c4.388 0 7.938-3.554 7.938-7.938s-3.55-7.938-7.938-7.938h-14.404c-4.388 0-7.938 3.554-7.938 7.938S120.166 367.62 124.554 367.62zM284.947 351.743H172.145c-4.388 0-7.938 3.554-7.938 7.938s3.55 7.938 7.938 7.938h112.802c4.388 0 7.938-3.554 7.938-7.938S289.334 351.743 284.947 351.743zM387.446 404.663H124.554c-4.388 0-7.938 3.554-7.938 7.938 0 4.384 3.55 7.938 7.938 7.938h262.892c4.388 0 7.938-3.554 7.938-7.938C395.384 408.218 391.834 404.663 387.446 404.663zM293.753 446.548H124.554c-4.388 0-7.938 3.554-7.938 7.938s3.55 7.938 7.938 7.938h169.199c4.388 0 7.938-3.554 7.938-7.938S298.141 446.548 293.753 446.548z"/></svg>